<?xml version="1.0" encoding="utf-8"?>
<!-- Generator: Adobe Illustrator 24.1.2, SVG Export Plug-In . SVG Version: 6.00 Build 0)  -->
<svg version="1.1" id="Layer_1" xmlns="http://www.w3.org/2000/svg" xmlns:xlink="http://www.w3.org/1999/xlink" x="0px" y="0px"
	 viewBox="0 0 650 650" style="enable-background:new 0 0 650 650;" xml:space="preserve">
<style type="text/css">
	.st0{fill:#EE4D2F;}
	.st1{fill:#FABE14;}
	.st2{fill:#FFFFFF;}
	.st3{fill:#03A696;}
	.st4{fill:#BCBCBC;}
	.st5{fill:#333333;}
</style>
<path class="st0" d="M642,295.9c0.9,9.1,1.3,18.4,1.4,27.8c0.2,55.3-13.7,107.4-38.3,152.8c-0.9,1.7-1.8,3.3-2.8,5L329,325.2
	l272.2-158.6C623.4,205.3,637.8,249.2,642,295.9z"/>
<path class="st0" d="M329,325.2l-1.1,0.7l-1.2,0l-0.7-0.4l0-0.3l0-0.3l-1.3-318c118.2-0.2,221.5,64,276.5,159.7L329,325.2z"/>
<path class="st1" d="M329,325.2l273.3,156.3c-3.3,5.9-6.8,11.6-10.5,17.3c-14.9,22.9-32.7,43.7-52.8,61.9
	c-42.1,38.2-94.4,65.2-152.5,76.5c-19.2,3.7-39,5.7-59.2,5.9l-1.3-317.6l0.7,0.4l1.2,0L329,325.2z"/>
<path class="st1" d="M325.9,325.5l1.3,317.6c-0.2,0-0.4,0-0.6,0c-117.6,0.5-220.6-63-276-157.7l1-0.6l273.9-159.6L325.9,325.5z"/>
<polygon class="st2" points="325.9,325.2 325.9,325.5 325.5,325.2 325.9,324.9 "/>
<path class="st3" d="M324.7,6.9l1.3,318l-0.4,0.3L50.4,167.8l-1.2-0.7C103.8,71.8,206.3,7.4,324,6.9C324.3,6.9,324.5,6.9,324.7,6.9z
	"/>
<path class="st3" d="M325.5,325.2L51.6,484.8l-1,0.6C23.3,438.6,7.5,384.3,7.3,326.2C7,268.3,22.3,214,49.2,167.1l1.2,0.7
	L325.5,325.2z"/>
<circle class="st2" cx="324.7" cy="323.9" r="284.5"/>
<path class="st4" d="M153.9,462.1l146.4-240.4c7-11.5,22.1-15.2,33.6-8.2l0,0c11.5,7,15.2,22.1,8.2,33.6L195.7,487.5
	c-7,11.5-22.1,15.2-33.6,8.2l0,0C150.6,488.7,146.9,473.6,153.9,462.1z"/>
<path class="st5" d="M480.3,495.7L480.3,495.7c-11.5,7-26.6,3.4-33.6-8.2L300.4,247.1c-7-11.5-3.4-26.6,8.2-33.6l0,0
	c11.5-7,26.6-3.4,33.6,8.2l146.4,240.4C495.5,473.6,491.8,488.7,480.3,495.7z"/>
<circle class="st5" cx="323.4" cy="415.7" r="33"/>
<path class="st5" d="M463,145.2l15.5-29.6c0.6-1.2-0.7-2.6-1.9-1.9L447,129.2c-0.4,0.2-0.9,0.2-1.3,0l-29.1-15.3
	c-1.2-0.6-2.6,0.7-1.9,1.9l15.4,29.4c0.2,0.4,0.2,0.9,0,1.3l-15.2,28.9c-0.6,1.2,0.7,2.6,1.9,1.9l28.9-15.2c0.4-0.2,0.9-0.2,1.3,0
	l29.4,15.4c1.2,0.6,2.6-0.7,1.9-1.9L463,146.5C462.8,146.1,462.8,145.6,463,145.2z"/>
<path class="st5" d="M351.7,148.9l14-9.3c0.6-0.4,0.3-1.3-0.4-1.3l-16.7-0.3c-0.2,0-0.5-0.1-0.6-0.3l-9.1-13.7
	c-0.4-0.6-1.3-0.3-1.3,0.4l-0.3,16.6c0,0.2-0.1,0.5-0.3,0.6l-13.6,9c-0.6,0.4-0.3,1.3,0.4,1.3l16.3,0.3c0.2,0,0.5,0.1,0.6,0.3
	l9.2,13.8c0.4,0.6,1.3,0.3,1.3-0.4l0.3-16.5C351.4,149.3,351.5,149.1,351.7,148.9z"/>
<path class="st5" d="M454.2,252.5l15.1-10c0.6-0.4,0.3-1.4-0.4-1.4l-18.1-0.3c-0.3,0-0.5-0.1-0.6-0.3l-9.9-14.9
	c-0.4-0.6-1.4-0.3-1.4,0.4l-0.3,18c0,0.3-0.1,0.5-0.3,0.6l-14.7,9.8c-0.6,0.4-0.3,1.4,0.4,1.4l17.7,0.3c0.3,0,0.5,0.1,0.6,0.3l10,15
	c0.4,0.6,1.4,0.3,1.4-0.4l0.3-17.8C453.8,252.9,454,252.6,454.2,252.5z"/>
</svg>
