<?xml version="1.0" encoding="UTF-8"?>
<svg width="127px" height="13px" viewBox="0 0 127 13" version="1.1" xmlns="http://www.w3.org/2000/svg" xmlns:xlink="http://www.w3.org/1999/xlink">
    <!-- Generator: Sketch 52.2 (67145) - http://www.bohemiancoding.com/sketch -->
    <title>android-icons-white</title>
    <desc>Created with Sketch.</desc>
    <g id="Page-2" stroke="none" stroke-width="1" fill="none" fill-rule="evenodd">
        <g id="android-icons-white" transform="translate(-3.000000, -1.000000)">
            <g id="100%" transform="translate(95.000000, 1.000000)" fill="#FFFFFF">
                <path d="M3.09912037,11 L3.09912037,2.50292969 L2.98974537,2.50292969 L0.480956312,4.32128906 L0.480956312,3.02246094 L3.10595631,1.13574219 L4.32958912,1.13574219 L4.32958912,11 L3.09912037,11 Z M10.5844719,11.2324219 C8.36279225,11.2324219 7.08447194,9.34570312 7.08447194,6.06445312 C7.08447194,2.81054688 8.37646412,0.903320312 10.5844719,0.903320312 C12.7788079,0.903320312 14.0708001,2.81738281 14.0708001,6.08496094 C14.0708001,9.359375 12.7993157,11.2324219 10.5844719,11.2324219 Z M10.5844719,10.1591797 C12.0405266,10.1591797 12.8334954,8.70996094 12.8334954,6.06445312 C12.8334954,3.44628906 12.0268547,1.98339844 10.5844719,1.98339844 C9.14208912,1.98339844 8.32177662,3.45996094 8.32177662,6.06445312 C8.32177662,8.703125 9.12841725,10.1591797 10.5844719,10.1591797 Z M19.4028313,11.2324219 C17.1811516,11.2324219 15.9028313,9.34570312 15.9028313,6.06445312 C15.9028313,2.81054688 17.1948235,0.903320312 19.4028313,0.903320312 C21.5971672,0.903320312 22.8891594,2.81738281 22.8891594,6.08496094 C22.8891594,9.359375 21.6176751,11.2324219 19.4028313,11.2324219 Z M19.4028313,10.1591797 C20.858886,10.1591797 21.6518547,8.70996094 21.6518547,6.06445312 C21.6518547,3.44628906 20.8452141,1.98339844 19.4028313,1.98339844 C17.9604485,1.98339844 17.140136,3.45996094 17.140136,6.06445312 C17.140136,8.703125 17.9467766,10.1591797 19.4028313,10.1591797 Z M28.5561516,3.33691406 C28.5561516,4.73144531 27.6879876,5.71582031 26.4575188,5.71582031 C25.2270501,5.71582031 24.3520501,4.73144531 24.3520501,3.33691406 C24.3520501,1.94921875 25.2270501,0.96484375 26.4575188,0.96484375 C27.6879876,0.96484375 28.5561516,1.94238281 28.5561516,3.33691406 Z M26.4575188,4.84082031 C27.0590813,4.84082031 27.4624016,4.23925781 27.4624016,3.33691406 C27.4624016,2.4140625 27.0727532,1.83984375 26.4575188,1.83984375 C25.8422844,1.83984375 25.4458001,2.42773438 25.4458001,3.33691406 C25.4458001,4.24609375 25.8491204,4.84082031 26.4575188,4.84082031 Z M26.3481438,11 L25.0903313,11 L28.8569329,5.859375 L32.3159172,1.13574219 L33.5600579,1.13574219 L29.7319329,6.37207031 L26.3481438,11 Z M34.2641594,8.79199219 C34.2641594,10.1865234 33.3959954,11.1708984 32.1655266,11.1708984 C30.9350579,11.1708984 30.0600579,10.1865234 30.0600579,8.79199219 C30.0600579,7.40429688 30.9350579,6.41992188 32.1655266,6.41992188 C33.3959954,6.41992188 34.2641594,7.39746094 34.2641594,8.79199219 Z M32.1655266,10.2958984 C32.7670891,10.2958984 33.1704094,9.69433594 33.1704094,8.79199219 C33.1704094,7.86914062 32.780761,7.29492188 32.1655266,7.29492188 C31.5502922,7.29492188 31.1538079,7.8828125 31.1538079,8.79199219 C31.1538079,9.70117188 31.5571282,10.2958984 32.1655266,10.2958984 Z"></path>
            </g>
            <g id="ui/status_bar/icons/white">
                <g id="ic_signal_wifi_4_bar-copy" transform="translate(39.000000, 0.000000)">
                    <g id="Icon-24px">
                        <path d="M7.50625,13.43125 L14.775,4.375 C14.49375,4.1625 11.69375,1.875 7.5,1.875 C3.3,1.875 0.50625,4.1625 0.225,4.375 L7.49375,13.43125 L7.5,13.4375 L7.50625,13.43125 Z" id="Shape" fill="#FFFFFF"></path>
                        <polygon id="Shape" points="0 0 15 0 15 15 0 15"></polygon>
                    </g>
                </g>
                <g id="ic_signal_cellular_4_bar-copy" transform="translate(55.000000, 0.000000)">
                    <g id="Icon-24px">
                        <polygon id="Shape" fill="#FFFFFF" points="1.25 13.75 13.75 13.75 13.75 1.25"></polygon>
                        <polygon id="Shape" points="0 0 15 0 15 15 0 15"></polygon>
                    </g>
                </g>
                <g id="ic_vibration-copy" transform="translate(18.000000, 0.000000)">
                    <g id="Icon-24px">
                        <polygon id="Shape" points="0 0 15 0 15 15 0 15"></polygon>
                        <path d="M0,9.375 L1.25,9.375 L1.25,5.625 L0,5.625 L0,9.375 Z M1.875,10.625 L3.125,10.625 L3.125,4.375 L1.875,4.375 L1.875,10.625 Z M13.75,5.625 L13.75,9.375 L15,9.375 L15,5.625 L13.75,5.625 Z M11.875,10.625 L13.125,10.625 L13.125,4.375 L11.875,4.375 L11.875,10.625 Z M10.3125,1.875 L4.6875,1.875 C4.16875,1.875 3.75,2.29375 3.75,2.8125 L3.75,12.1875 C3.75,12.70625 4.16875,13.125 4.6875,13.125 L10.3125,13.125 C10.83125,13.125 11.25,12.70625 11.25,12.1875 L11.25,2.8125 C11.25,2.29375 10.83125,1.875 10.3125,1.875 Z M10,11.875 L5,11.875 L5,3.125 L10,3.125 L10,11.875 Z" id="Shape" fill="#FFFFFF" fill-rule="nonzero"></path>
                    </g>
                </g>
                <g id="ic_bluetooth-copy">
                    <g id="Icon-24px">
                        <polygon id="Shape" points="0 0 15 0 15 15 0 15"></polygon>
                        <path d="M11.06875,4.81875 L7.5,1.25 L6.875,1.25 L6.875,5.99375 L4.00625,3.125 L3.125,4.00625 L6.61875,7.5 L3.125,10.99375 L4.00625,11.875 L6.875,9.00625 L6.875,13.75 L7.5,13.75 L11.06875,10.18125 L8.38125,7.5 L11.06875,4.81875 Z M8.125,3.64375 L9.3,4.81875 L8.125,5.99375 L8.125,3.64375 Z M9.3,10.18125 L8.125,11.35625 L8.125,9.00625 L9.3,10.18125 Z" id="Shape" fill="#FFFFFF" fill-rule="nonzero"></path>
                    </g>
                </g>
            </g>
            <g id="ic_battery_full-copy" transform="translate(77.000000, 0.000000)">
                <g id="Icon-24px">
                    <polygon id="Shape" points="3 0 18 0 18 15 3 15"></polygon>
                    <path d="M5.79375,2.5 L4.75,2.5 L4.75,1.25 L2.25,1.25 L2.25,2.5 L1.20625,2.5 C0.75,2.5 0.375,2.875 0.375,3.33125 L0.375,12.9125 C0.375,13.375 0.75,13.75 1.20625,13.75 L5.7875,13.75 C6.25,13.75 6.625,13.375 6.625,12.91875 L6.625,3.33125 C6.625,2.875 6.25,2.5 5.79375,2.5 Z" id="Shape" fill="#FFFFFF"></path>
                </g>
            </g>
        </g>
    </g>
</svg>