<?xml version="1.0" encoding="UTF-8"?>
<svg width="127px" height="13px" viewBox="0 0 127 13" version="1.1" xmlns="http://www.w3.org/2000/svg" xmlns:xlink="http://www.w3.org/1999/xlink">
    <!-- Generator: Sketch 52.2 (67145) - http://www.bohemiancoding.com/sketch -->
    <title>android-icons-black</title>
    <desc>Created with Sketch.</desc>
    <g id="Page-2" stroke="none" stroke-width="1" fill="none" fill-rule="evenodd">
        <g id="android-icons-black" transform="translate(-3.000000, -2.000000)">
            <g id="100%" transform="translate(94.000000, 0.000000)" fill="#4A4A4A">
                <g id="Group">
                    <path d="M4.09912038,13 L4.09912038,4.50292969 L3.98974538,4.50292969 L1.48095631,6.32128906 L1.48095631,5.02246094 L4.10595631,3.13574219 L5.32958913,3.13574219 L5.32958913,13 L4.09912038,13 Z M11.5844719,13.2324219 C9.36279225,13.2324219 8.08447194,11.3457031 8.08447194,8.06445312 C8.08447194,4.81054688 9.37646413,2.90332031 11.5844719,2.90332031 C13.7788079,2.90332031 15.0708001,4.81738281 15.0708001,8.08496094 C15.0708001,11.359375 13.7993157,13.2324219 11.5844719,13.2324219 Z M11.5844719,12.1591797 C13.0405266,12.1591797 13.8334954,10.7099609 13.8334954,8.06445312 C13.8334954,5.44628906 13.0268548,3.98339844 11.5844719,3.98339844 C10.1420891,3.98339844 9.32177663,5.45996094 9.32177663,8.06445312 C9.32177663,10.703125 10.1284173,12.1591797 11.5844719,12.1591797 Z M20.4028313,13.2324219 C18.1811516,13.2324219 16.9028313,11.3457031 16.9028313,8.06445312 C16.9028313,4.81054688 18.1948235,2.90332031 20.4028313,2.90332031 C22.5971672,2.90332031 23.8891594,4.81738281 23.8891594,8.08496094 C23.8891594,11.359375 22.6176751,13.2324219 20.4028313,13.2324219 Z M20.4028313,12.1591797 C21.858886,12.1591797 22.6518547,10.7099609 22.6518547,8.06445312 C22.6518547,5.44628906 21.8452141,3.98339844 20.4028313,3.98339844 C18.9604485,3.98339844 18.140136,5.45996094 18.140136,8.06445312 C18.140136,10.703125 18.9467766,12.1591797 20.4028313,12.1591797 Z M29.5561516,5.33691406 C29.5561516,6.73144531 28.6879876,7.71582031 27.4575188,7.71582031 C26.2270501,7.71582031 25.3520501,6.73144531 25.3520501,5.33691406 C25.3520501,3.94921875 26.2270501,2.96484375 27.4575188,2.96484375 C28.6879876,2.96484375 29.5561516,3.94238281 29.5561516,5.33691406 Z M27.4575188,6.84082031 C28.0590813,6.84082031 28.4624016,6.23925781 28.4624016,5.33691406 C28.4624016,4.4140625 28.0727532,3.83984375 27.4575188,3.83984375 C26.8422844,3.83984375 26.4458001,4.42773438 26.4458001,5.33691406 C26.4458001,6.24609375 26.8491204,6.84082031 27.4575188,6.84082031 Z M27.3481438,13 L26.0903313,13 L29.8569329,7.859375 L33.3159172,3.13574219 L34.5600579,3.13574219 L30.7319329,8.37207031 L27.3481438,13 Z M35.2641594,10.7919922 C35.2641594,12.1865234 34.3959954,13.1708984 33.1655266,13.1708984 C31.9350579,13.1708984 31.0600579,12.1865234 31.0600579,10.7919922 C31.0600579,9.40429688 31.9350579,8.41992188 33.1655266,8.41992188 C34.3959954,8.41992188 35.2641594,9.39746094 35.2641594,10.7919922 Z M33.1655266,12.2958984 C33.7670891,12.2958984 34.1704094,11.6943359 34.1704094,10.7919922 C34.1704094,9.86914062 33.780761,9.29492188 33.1655266,9.29492188 C32.5502922,9.29492188 32.1538079,9.8828125 32.1538079,10.7919922 C32.1538079,11.7011719 32.5571282,12.2958984 33.1655266,12.2958984 Z" id="100%"></path>
                </g>
            </g>
            <g id="ui/status_bar/icons/white" transform="translate(0.000000, 1.000000)">
                <g id="ic_signal_wifi_4_bar-copy" transform="translate(39.000000, 1.000000)" fill="#4A4A4A">
                    <g id="Icon-24px">
                        <path d="M7.50625,12.43125 L14.775,3.375 C14.49375,3.1625 11.69375,0.875 7.5,0.875 C3.3,0.875 0.50625,3.1625 0.225,3.375 L7.49375,12.43125 L7.5,12.4375 L7.50625,12.43125 Z" id="Shape"></path>
                    </g>
                </g>
                <g id="ic_signal_cellular_4_bar-copy" transform="translate(56.000000, 1.000000)" fill="#4A4A4A">
                    <g id="Icon-24px">
                        <polygon id="Shape" points="0.25 12.75 12.75 12.75 12.75 0.25"></polygon>
                    </g>
                </g>
                <g id="ic_vibration-copy" transform="translate(18.000000, 1.000000)" fill="#4A4A4A" fill-rule="nonzero">
                    <g id="Icon-24px">
                        <path d="M0,8.375 L1.25,8.375 L1.25,4.625 L0,4.625 L0,8.375 Z M1.875,9.625 L3.125,9.625 L3.125,3.375 L1.875,3.375 L1.875,9.625 Z M13.75,4.625 L13.75,8.375 L15,8.375 L15,4.625 L13.75,4.625 Z M11.875,9.625 L13.125,9.625 L13.125,3.375 L11.875,3.375 L11.875,9.625 Z M10.3125,0.875 L4.6875,0.875 C4.16875,0.875 3.75,1.29375 3.75,1.8125 L3.75,11.1875 C3.75,11.70625 4.16875,12.125 4.6875,12.125 L10.3125,12.125 C10.83125,12.125 11.25,11.70625 11.25,11.1875 L11.25,1.8125 C11.25,1.29375 10.83125,0.875 10.3125,0.875 Z M10,10.875 L5,10.875 L5,2.125 L10,2.125 L10,10.875 Z" id="Shape"></path>
                    </g>
                </g>
                <g id="ic_bluetooth-copy">
                    <g id="Icon-24px">
                        <polygon id="Shape" points="0 0 15 0 15 15 0 15"></polygon>
                        <path d="M11.06875,4.81875 L7.5,1.25 L6.875,1.25 L6.875,5.99375 L4.00625,3.125 L3.125,4.00625 L6.61875,7.5 L3.125,10.99375 L4.00625,11.875 L6.875,9.00625 L6.875,13.75 L7.5,13.75 L11.06875,10.18125 L8.38125,7.5 L11.06875,4.81875 Z M8.125,3.64375 L9.3,4.81875 L8.125,5.99375 L8.125,3.64375 Z M9.3,10.18125 L8.125,11.35625 L8.125,9.00625 L9.3,10.18125 Z" id="Shape" fill="#4A4A4A" fill-rule="nonzero"></path>
                    </g>
                </g>
            </g>
            <g id="ic_battery_full-copy" transform="translate(77.000000, 1.000000)">
                <g id="Icon-24px">
                    <polygon id="Shape" points="3 0 18 0 18 15 3 15"></polygon>
                    <path d="M5.79375,2.5 L4.75,2.5 L4.75,1.25 L2.25,1.25 L2.25,2.5 L1.20625,2.5 C0.75,2.5 0.375,2.875 0.375,3.33125 L0.375,12.9125 C0.375,13.375 0.75,13.75 1.20625,13.75 L5.7875,13.75 C6.25,13.75 6.625,13.375 6.625,12.91875 L6.625,3.33125 C6.625,2.875 6.25,2.5 5.79375,2.5 Z" id="Shape" fill="#4A4A4A"></path>
                </g>
            </g>
        </g>
    </g>
</svg>