<?xml version="1.0" encoding="UTF-8"?>
<svg width="52px" height="10px" viewBox="0 0 52 10" version="1.1" xmlns="http://www.w3.org/2000/svg" xmlns:xlink="http://www.w3.org/1999/xlink">
    <!-- Generator: Sketch 57.1 (83088) - https://sketch.com -->
    <title>Group</title>
    <desc>Created with Sketch.</desc>
    <g id="Page-1" stroke="none" stroke-width="1" fill="none" fill-rule="evenodd">
        <g id="Group" transform="translate(0.000000, -0.500000)" fill="#000000" fill-rule="nonzero">
            <g id="bars-ios-black" transform="translate(0.000000, 0.500000)">
                <path d="M12,0.49738558 C12,0.22268711 12.2307129,0 12.5059123,0 L13.9940877,0 C14.2734953,0 14.5,0.21627015 14.5,0.49738558 L14.5,9.0026144 C14.5,9.2773129 14.2692871,9.5 13.9940877,9.5 L12.5059123,9.5 C12.2265047,9.5 12,9.2837299 12,9.0026144 L12,0.49738558 Z M8,3.00342274 C8,2.72539004 8.23071289,2.5 8.5059123,2.5 L9.9940877,2.5 C10.2734953,2.5 10.5,2.73290253 10.5,3.00342274 L10.5,8.9965773 C10.5,9.27461 10.2692871,9.5 9.9940877,9.5 L8.5059123,9.5 C8.22650465,9.5 8,9.2670975 8,8.9965773 L8,3.00342274 Z M4,4.99769878 C4,4.72282734 4.23071289,4.5 4.5059123,4.5 L5.9940877,4.5 C6.27349535,4.5 6.5,4.71484375 6.5,4.99769878 L6.5,9.0023012 C6.5,9.2771727 6.26928711,9.5 5.9940877,9.5 L4.5059123,9.5 C4.22650465,9.5 4,9.2851562 4,9.0023012 L4,4.99769878 Z M0,6.99538898 C0,6.7217932 0.230712891,6.5 0.505912304,6.5 L1.9940877,6.5 C2.27349535,6.5 2.5,6.7157526 2.5,6.99538898 L2.5,9.004611 C2.5,9.2782068 2.26928711,9.5 1.9940877,9.5 L0.505912304,9.5 C0.226504654,9.5 0,9.2842474 0,9.004611 L0,6.99538898 Z" id="Mobile-Signal"></path>
            </g>
            <path d="M26.5742188,10 L25.7246094,7.58007812 L22.3613281,7.58007812 L21.5117188,10 L20.4042969,10 L23.5214844,1.54492188 L24.5644531,1.54492188 L27.6816406,10 L26.5742188,10 Z M23.9960938,2.91015625 L22.671875,6.68359375 L25.4140625,6.68359375 L24.0898438,2.91015625 L23.9960938,2.91015625 Z M31.0214844,10.1113281 C29.4042969,10.1113281 28.3671875,8.828125 28.3671875,6.84179688 C28.3671875,4.86132812 29.4160156,3.57226562 31.0214844,3.57226562 C31.9003906,3.57226562 32.6445312,3.98828125 33.0019531,4.6796875 L33.0898438,4.6796875 L33.0898438,1.17578125 L34.0976562,1.17578125 L34.0976562,10 L33.1367188,10 L33.1367188,8.9921875 L33.0429688,8.9921875 C32.6445312,9.6953125 31.8945312,10.1113281 31.0214844,10.1113281 Z M31.2558594,4.48046875 C30.1074219,4.48046875 29.4101562,5.37109375 29.4101562,6.84179688 C29.4101562,8.31835938 30.1015625,9.203125 31.2558594,9.203125 C32.4042969,9.203125 33.1132812,8.30078125 33.1132812,6.84179688 C33.1132812,5.39453125 32.3984375,4.48046875 31.2558594,4.48046875 Z M38,9.2265625 C39.0371094,9.2265625 39.8046875,8.546875 39.8046875,7.64453125 L39.8046875,7.06445312 L38.1054688,7.17578125 C37.1445312,7.24023438 36.7226562,7.57421875 36.7226562,8.20703125 C36.7226562,8.8515625 37.2675781,9.2265625 38,9.2265625 Z M37.8125,10.1113281 C36.5878906,10.1113281 35.6796875,9.38476562 35.6796875,8.23046875 C35.6796875,7.09960938 36.5117188,6.44921875 37.9824219,6.36132812 L39.8046875,6.25 L39.8046875,5.67578125 C39.8046875,4.89648438 39.3183594,4.46875 38.375,4.46875 C37.6191406,4.46875 37.0917969,4.75585938 36.9511719,5.25390625 L35.9316406,5.25390625 C36.0664062,4.24023438 37.0625,3.57226562 38.4101562,3.57226562 C39.9511719,3.57226562 40.8125,4.36328125 40.8125,5.67578125 L40.8125,10 L39.8515625,10 L39.8515625,9.06835938 L39.7578125,9.06835938 C39.3476562,9.7421875 38.65625,10.1113281 37.8125,10.1113281 Z M42.734375,10 L42.734375,1.17578125 L43.7421875,1.17578125 L43.7421875,10 L42.734375,10 Z M48.2949219,10.1113281 C46.4960938,10.1113281 45.3828125,8.86914062 45.3828125,6.84179688 C45.3828125,4.80859375 46.4960938,3.57226562 48.2949219,3.57226562 C50.09375,3.57226562 51.2070312,4.80859375 51.2070312,6.84179688 C51.2070312,8.86914062 50.09375,10.1113281 48.2949219,10.1113281 Z M48.2949219,9.203125 C49.4902344,9.203125 50.1640625,8.3359375 50.1640625,6.84179688 C50.1640625,5.34179688 49.4902344,4.48046875 48.2949219,4.48046875 C47.0996094,4.48046875 46.4257812,5.34179688 46.4257812,6.84179688 C46.4257812,8.3359375 47.0996094,9.203125 48.2949219,9.203125 Z" id="Adalo"></path>
        </g>
    </g>
</svg>