<?xml version="1.0" encoding="UTF-8"?>
<svg width="58px" height="11px" viewBox="0 0 58 11" version="1.1" xmlns="http://www.w3.org/2000/svg" xmlns:xlink="http://www.w3.org/1999/xlink">
    <!-- Generator: Sketch 52.2 (67145) - http://www.bohemiancoding.com/sketch -->
    <title>battery-ios-black</title>
    <desc>Created with Sketch.</desc>
    <g id="Page-2" stroke="none" stroke-width="1" fill="none" fill-rule="evenodd">
        <g id="battery-ios-black">
            <g id="100%" fill="#030303">
                <path d="M2.81835937,9.5 L2.81835937,2.21679688 L2.72460937,2.21679688 L0.574218745,3.77539062 L0.574218745,2.66210938 L2.82421874,1.04492188 L3.87304687,1.04492188 L3.87304687,9.5 L2.81835937,9.5 Z M9.23437499,9.69921875 C7.33007812,9.69921875 6.23437499,8.08203125 6.23437499,5.26953125 C6.23437499,2.48046875 7.34179687,0.845703125 9.23437499,0.845703125 C11.1152344,0.845703125 12.2226562,2.48632812 12.2226562,5.28710938 C12.2226562,8.09375 11.1328125,9.69921875 9.23437499,9.69921875 Z M9.23437499,8.77929688 C10.4824219,8.77929688 11.1621094,7.53710938 11.1621094,5.26953125 C11.1621094,3.02539062 10.4707031,1.77148438 9.23437499,1.77148438 C7.99804687,1.77148438 7.29492187,3.03710938 7.29492187,5.26953125 C7.29492187,7.53125 7.98632812,8.77929688 9.23437499,8.77929688 Z M16.7929687,9.69921875 C14.8886719,9.69921875 13.7929687,8.08203125 13.7929687,5.26953125 C13.7929687,2.48046875 14.9003906,0.845703125 16.7929687,0.845703125 C18.6738281,0.845703125 19.78125,2.48632812 19.78125,5.28710938 C19.78125,8.09375 18.6914062,9.69921875 16.7929687,9.69921875 Z M16.7929687,8.77929688 C18.0410156,8.77929688 18.7207031,7.53710938 18.7207031,5.26953125 C18.7207031,3.02539062 18.0292969,1.77148438 16.7929687,1.77148438 C15.5566406,1.77148438 14.8535156,3.03710938 14.8535156,5.26953125 C14.8535156,7.53125 15.5449219,8.77929688 16.7929687,8.77929688 Z M24.6386719,2.93164062 C24.6386719,4.12695312 23.8945312,4.97070312 22.8398437,4.97070312 C21.7851562,4.97070312 21.0351562,4.12695312 21.0351562,2.93164062 C21.0351562,1.7421875 21.7851562,0.8984375 22.8398437,0.8984375 C23.8945312,0.8984375 24.6386719,1.73632812 24.6386719,2.93164062 Z M22.8398437,4.22070312 C23.3554687,4.22070312 23.7011719,3.70507812 23.7011719,2.93164062 C23.7011719,2.140625 23.3671875,1.6484375 22.8398437,1.6484375 C22.3125,1.6484375 21.9726562,2.15234375 21.9726562,2.93164062 C21.9726562,3.7109375 22.3183594,4.22070312 22.8398437,4.22070312 Z M22.7460937,9.5 L21.6679687,9.5 L24.8964844,5.09375 L27.8613281,1.04492188 L28.9277344,1.04492188 L25.6464844,5.53320312 L22.7460937,9.5 Z M29.53125,7.60742188 C29.53125,8.80273438 28.7871094,9.64648438 27.7324219,9.64648438 C26.6777344,9.64648438 25.9277344,8.80273438 25.9277344,7.60742188 C25.9277344,6.41796875 26.6777344,5.57421875 27.7324219,5.57421875 C28.7871094,5.57421875 29.53125,6.41210938 29.53125,7.60742188 Z M27.7324219,8.89648438 C28.2480469,8.89648438 28.59375,8.38085938 28.59375,7.60742188 C28.59375,6.81640625 28.2597656,6.32421875 27.7324219,6.32421875 C27.2050781,6.32421875 26.8652344,6.828125 26.8652344,7.60742188 C26.8652344,8.38671875 27.2109375,8.89648438 27.7324219,8.89648438 Z"></path>
            </g>
            <g id="Battery" transform="translate(33.000000, 0.000000)" fill="#000000">
                <path d="M21,7.99832845 L21,2.50167155 C21,1.67453641 20.3259836,1 19.4977394,1 L2.50226064,1 C1.67308288,1 1,1.67275196 1,2.50167155 L1,7.99832845 C1,8.82649069 1.66989891,9.5 2.49076705,9.5 L19.5090862,9.5 C20.3302756,9.5 21,8.82777745 21,7.99832845 Z M20.9595844,9.5 L20.9595844,10.0316669 C20.5508133,10.3264332 20.0498041,10.5 19.5090859,10.5 L20.2343351,10.5 L19.5090859,10.5 L19.5090859,9.5 L20.9595844,9.5 Z M20.2343351,10.5 L20.9595844,10.5 L20.2343351,10.5 Z M20.9595844,9.5 L19.5090859,9.5 L19.5090859,10.5 L2.49076705,10.5 C1.11515439,10.5 0,9.37631607 0,7.99832845 L0,2.50167155 C0,1.1200365 1.12122893,0 2.50226064,0 L19.4977394,0 C20.8796998,0 22,1.12368393 22,2.50167155 L22,7.99832845 C22,8.83607409 21.5892089,9.57764233 20.9595844,10.0316669 L20.9595844,9.5 Z" id="Rectangle" fill-rule="nonzero" opacity="0.401283482"></path>
                <path d="M23,3.5 C23.8626136,3.7220214 24.5,4.50507154 24.5,5.43699126 C24.5,6.36891097 23.8626136,7.15196112 23,7.37398251 L23,3.5 Z" id="Combined-Shape" fill-opacity="0.5"></path>
                <rect id="Rectangle" x="2" y="2" width="18" height="6.5" rx="1"></rect>
            </g>
        </g>
    </g>
</svg>