<?xml version="1.0" encoding="UTF-8"?>
<svg width="58px" height="11px" viewBox="0 0 58 11" version="1.1" xmlns="http://www.w3.org/2000/svg" xmlns:xlink="http://www.w3.org/1999/xlink">
    <!-- Generator: Sketch 52.2 (67145) - http://www.bohemiancoding.com/sketch -->
    <title>battery-ios-white</title>
    <desc>Created with Sketch.</desc>
    <g id="Page-2" stroke="none" stroke-width="1" fill="none" fill-rule="evenodd">
        <g id="battery-ios-white" transform="translate(-1.000000, -2.000000)" fill="#FFFFFF">
            <g id="100%">
                <path d="M3.81835937,11.5 L3.81835937,4.21679688 L3.72460937,4.21679688 L1.57421875,5.77539062 L1.57421875,4.66210938 L3.82421875,3.04492188 L4.87304687,3.04492188 L4.87304687,11.5 L3.81835937,11.5 Z M10.234375,11.6992188 C8.33007812,11.6992188 7.23437499,10.0820312 7.23437499,7.26953125 C7.23437499,4.48046875 8.34179687,2.84570312 10.234375,2.84570312 C12.1152344,2.84570312 13.2226562,4.48632812 13.2226562,7.28710938 C13.2226562,10.09375 12.1328125,11.6992188 10.234375,11.6992188 Z M10.234375,10.7792969 C11.4824219,10.7792969 12.1621094,9.53710938 12.1621094,7.26953125 C12.1621094,5.02539062 11.4707031,3.77148438 10.234375,3.77148438 C8.99804687,3.77148438 8.29492187,5.03710938 8.29492187,7.26953125 C8.29492187,9.53125 8.98632812,10.7792969 10.234375,10.7792969 Z M17.7929687,11.6992188 C15.8886719,11.6992188 14.7929687,10.0820312 14.7929687,7.26953125 C14.7929687,4.48046875 15.9003906,2.84570312 17.7929687,2.84570312 C19.6738281,2.84570312 20.78125,4.48632812 20.78125,7.28710938 C20.78125,10.09375 19.6914062,11.6992188 17.7929687,11.6992188 Z M17.7929687,10.7792969 C19.0410156,10.7792969 19.7207031,9.53710938 19.7207031,7.26953125 C19.7207031,5.02539062 19.0292969,3.77148438 17.7929687,3.77148438 C16.5566406,3.77148438 15.8535156,5.03710938 15.8535156,7.26953125 C15.8535156,9.53125 16.5449219,10.7792969 17.7929687,10.7792969 Z M25.6386719,4.93164062 C25.6386719,6.12695312 24.8945312,6.97070312 23.8398437,6.97070312 C22.7851562,6.97070312 22.0351562,6.12695312 22.0351562,4.93164062 C22.0351562,3.7421875 22.7851562,2.8984375 23.8398437,2.8984375 C24.8945312,2.8984375 25.6386719,3.73632812 25.6386719,4.93164062 Z M23.8398437,6.22070312 C24.3554687,6.22070312 24.7011719,5.70507812 24.7011719,4.93164062 C24.7011719,4.140625 24.3671875,3.6484375 23.8398437,3.6484375 C23.3125,3.6484375 22.9726562,4.15234375 22.9726562,4.93164062 C22.9726562,5.7109375 23.3183594,6.22070312 23.8398437,6.22070312 Z M23.7460937,11.5 L22.6679687,11.5 L25.8964844,7.09375 L28.8613281,3.04492188 L29.9277344,3.04492188 L26.6464844,7.53320312 L23.7460937,11.5 Z M30.53125,9.60742188 C30.53125,10.8027344 29.7871094,11.6464844 28.7324219,11.6464844 C27.6777344,11.6464844 26.9277344,10.8027344 26.9277344,9.60742188 C26.9277344,8.41796875 27.6777344,7.57421875 28.7324219,7.57421875 C29.7871094,7.57421875 30.53125,8.41210938 30.53125,9.60742188 Z M28.7324219,10.8964844 C29.2480469,10.8964844 29.59375,10.3808594 29.59375,9.60742188 C29.59375,8.81640625 29.2597656,8.32421875 28.7324219,8.32421875 C28.2050781,8.32421875 27.8652344,8.828125 27.8652344,9.60742188 C27.8652344,10.3867188 28.2109375,10.8964844 28.7324219,10.8964844 Z"></path>
            </g>
            <g id="Battery" transform="translate(34.000000, 2.000000)">
                <path d="M21,7.99832845 L21,2.50167155 C21,1.67453641 20.3259836,1 19.4977394,1 L2.50226064,1 C1.67308288,1 1,1.67275196 1,2.50167155 L1,7.99832845 C1,8.82649069 1.66989891,9.5 2.49076705,9.5 L19.5090862,9.5 C20.3302756,9.5 21,8.82777745 21,7.99832845 Z M20.9595844,9.5 L20.9595844,10.0316669 C20.5508133,10.3264332 20.0498041,10.5 19.5090859,10.5 L20.2343351,10.5 L19.5090859,10.5 L19.5090859,9.5 L20.9595844,9.5 Z M20.2343351,10.5 L20.9595844,10.5 L20.2343351,10.5 Z M20.9595844,9.5 L19.5090859,9.5 L19.5090859,10.5 L2.49076705,10.5 C1.11515439,10.5 0,9.37631607 0,7.99832845 L0,2.50167155 C0,1.1200365 1.12122893,0 2.50226064,0 L19.4977394,0 C20.8796998,0 22,1.12368393 22,2.50167155 L22,7.99832845 C22,8.83607409 21.5892089,9.57764233 20.9595844,10.0316669 L20.9595844,9.5 Z" id="Rectangle" fill-rule="nonzero" opacity="0.401283482"></path>
                <path d="M23,3.5 C23.8626136,3.7220214 24.5,4.50507154 24.5,5.43699126 C24.5,6.36891097 23.8626136,7.15196112 23,7.37398251 L23,3.5 Z" id="Combined-Shape" opacity="0.495591518"></path>
                <rect id="Rectangle" x="2" y="2" width="18" height="6.5" rx="1"></rect>
            </g>
        </g>
    </g>
</svg>