<?xml version="1.0" encoding="UTF-8"?>
<svg width="51px" height="12px" viewBox="0 0 51 12" version="1.1" xmlns="http://www.w3.org/2000/svg" xmlns:xlink="http://www.w3.org/1999/xlink">
    <!-- Generator: Sketch 51.1 (57501) - http://www.bohemiancoding.com/sketch -->
    <title>iphonex-bars-black</title>
    <desc>Created with Sketch.</desc>
    <defs></defs>
    <g id="Page-1" stroke="none" stroke-width="1" fill="none" fill-rule="evenodd">
        <g id="iphonex-bars-black">
            <g id="Battery" transform="translate(26.000000, 0.000000)">
                <rect id="Rectangle" stroke="#FFFFFF" opacity="0.35" x="0.5" y="0.833333333" width="21" height="10.3333333" rx="2.66666675"></rect>
                <path d="M23,4 L23,8 C23.8047311,7.66122348 24.328038,6.87313328 24.328038,6 C24.328038,5.12686672 23.8047311,4.33877652 23,4" id="Combined-Shape" fill="#FFFFFF" fill-rule="nonzero" opacity="0.4"></path>
                <rect id="Rectangle" fill="#FFFFFF" fill-rule="nonzero" x="2" y="2.33333333" width="18" height="7.33333333" rx="1.33333337"></rect>
            </g>
            <path d="M1.66666667,7.33333333 L2.66666667,7.33333333 C3.21895142,7.33333333 3.66666667,7.78104858 3.66666667,8.33333333 L3.66666667,10.3333333 C3.66666667,10.8856181 3.21895142,11.3333333 2.66666667,11.3333333 L1.66666667,11.3333333 C1.11438192,11.3333333 0.666666667,10.8856181 0.666666667,10.3333333 L0.666666667,8.33333333 C0.666666667,7.78104858 1.11438192,7.33333333 1.66666667,7.33333333 Z M6.33333333,5.33333333 L7.33333333,5.33333333 C7.88561808,5.33333333 8.33333333,5.78104858 8.33333333,6.33333333 L8.33333333,10.3333333 C8.33333333,10.8856181 7.88561808,11.3333333 7.33333333,11.3333333 L6.33333333,11.3333333 C5.78104858,11.3333333 5.33333333,10.8856181 5.33333333,10.3333333 L5.33333333,6.33333333 C5.33333333,5.78104858 5.78104858,5.33333333 6.33333333,5.33333333 Z M11,3 L12,3 C12.5522847,3 13,3.44771525 13,4 L13,10.3333333 C13,10.8856181 12.5522847,11.3333333 12,11.3333333 L11,11.3333333 C10.4477153,11.3333333 10,10.8856181 10,10.3333333 L10,4 C10,3.44771525 10.4477153,3 11,3 Z M15.6666667,0.666666667 L16.6666667,0.666666667 C17.2189514,0.666666667 17.6666667,1.11438192 17.6666667,1.66666667 L17.6666667,10.3333333 C17.6666667,10.8856181 17.2189514,11.3333333 16.6666667,11.3333333 L15.6666667,11.3333333 C15.1143819,11.3333333 14.6666667,10.8856181 14.6666667,10.3333333 L14.6666667,1.66666667 C14.6666667,1.11438192 15.1143819,0.666666667 15.6666667,0.666666667 Z" id="Mobile-Signal" fill="#FFFFFF" fill-rule="nonzero"></path>
        </g>
    </g>
</svg>